<svg viewBox="0 0 91 23.57" xmlns="http://www.w3.org/2000/svg"><g fill="#fff"><path d="M43.81 21.46v-.33a1.93 1.93 0 0 0 1-1.26 8.75 8.75 0 0 0 .12-1.72v-5.9a4.29 4.29 0 0 0-.17-1.57c-.11-.2-.38-.3-.8-.3h-.12l-.2-.38.18-.09.2-.08c1.06-.45 2.1-.94 3.13-1.46s2-1.08 3.05-1.68L54.28 12l-6.09 5v3c.51.22 1 .44 1.48.68s1 .48 1.43.75l2.42-1.59.33.46L49 23.56a14.11 14.11 0 0 0-5.14-2.1m4.38-12.7v6.82l3.31-2.72zM27.26 20.5a1.55 1.55 0 0 1-.74.32c-.6 0-.89-.62-.89-1.87v-8.78l1.08-1-2.79-2.45-2.75 2.44 1.19 1v8.12l-2.69 2.32-1.17-.93v-9.5l1.13-1-2.77-2.45-3 2.61.61.42.71.5v8.05a6.55 6.55 0 0 1-.11 1.7 1.36 1.36 0 0 1-.79.58v.45a14.78 14.78 0 0 1 3.7 2.5l4.38-3.95V20a4.64 4.64 0 0 0 .33 1.94 2.59 2.59 0 0 0 .5.67 7.92 7.92 0 0 0 .82.71 1.77 1.77 0 0 0 .41.28l3.34-2.5zM42 20.24l-.11.09a1.74 1.74 0 0 1-.78.38q-.63 0-.78-1.08a4.42 4.42 0 0 1 0-.49v-7.56c0-2.09-.4-2.68-1.1-3.34s-1.69-1.52-1.69-1.52l-4.15 3.42a3.32 3.32 0 0 1 0-.42A2.81 2.81 0 0 0 33 8.18 6.68 6.68 0 0 0 31.81 7l-.36-.28-3.31 2.49.37.51a2.69 2.69 0 0 1 .83-.35.8.8 0 0 1 .38.08.65.65 0 0 1 .23.31 2.25 2.25 0 0 1 .1.64V20l-1.28 1.2 2.87 2.37 2.89-2.3-1.14-1.22v-8.67l2.55-2.16a5.59 5.59 0 0 1 .5.53c.49.53.57.66.57 1.64v7.3a10.16 10.16 0 0 0 .26 2.84 4.89 4.89 0 0 0 1.42 1.73s.08.08.15.13l.21.18 3.53-2.79-.41-.66-.15.12M64.56 7.6L55.51 1v3.78l4.16 3.16a8.59 8.59 0 0 1-3.22 1.36v7.4a14.92 14.92 0 0 1-.16 2.86 2.62 2.62 0 0 1-.78 1.22v.35a9.28 9.28 0 0 1 1.64.22 10.79 10.79 0 0 1 1.46.44 11 11 0 0 1 1.5.71c.54.3 1.12.66 1.72 1.06a20.71 20.71 0 0 1 4.9-2.64V10.54v-1.3zm-1.1 13.25l-3.55-1.69V9.35l.53-.35c.14-.09.24-.17.32-.23l2.7 2zM74.9 21.13l-1-.8V10.05l1.14-1-2.82-2.3-2.72 2.18 1.16 1v8.15a10.05 10.05 0 0 1-.07 1.48 1.39 1.39 0 0 1-1 1v.3a18.08 18.08 0 0 1 3.22 2.7l2.6-2zM9.05 7.6L0 1v3.78l4.17 3.16A8.66 8.66 0 0 1 1 9.3v7.4a14.61 14.61 0 0 1-.17 2.86A2.47 2.47 0 0 1 0 20.78v.35a9.52 9.52 0 0 1 1.65.22 10.65 10.65 0 0 1 1.45.44 11.67 11.67 0 0 1 1.51.71c.54.3 1.11.66 1.71 1.06a20.91 20.91 0 0 1 4.9-2.64V10.54v-1.3zM8 20.85l-3.6-1.69V9.35L4.94 9l.32-.23 2.7 2zM90.44 20.24l-.1.09a1.84 1.84 0 0 1-.78.38c-.43 0-.69-.36-.79-1.08a4.42 4.42 0 0 1 0-.49v-7.56c0-2.09-.4-2.68-1.09-3.34S86 6.72 86 6.72l-4.15 3.42a3.32 3.32 0 0 1 0-.42 2.81 2.81 0 0 0-.38-1.54A6.34 6.34 0 0 0 80.23 7l-.36-.28-3.31 2.49.37.51a2.69 2.69 0 0 1 .83-.35.8.8 0 0 1 .38.08.59.59 0 0 1 .23.31 2.59 2.59 0 0 1 .11.64V20l-1.28 1.2 2.86 2.37 2.94-2.3-1.14-1.22v-8.67l2.55-2.16a5.75 5.75 0 0 1 .51.53c.48.53.56.66.57 1.64v7.3a9.78 9.78 0 0 0 .26 2.84 4.78 4.78 0 0 0 1.42 1.73.94.94 0 0 0 .14.13l.21.18L91 20.78l-.4-.66zM76.28.12L73.52 0l-.83 3.82.83.07z"/></g></svg>