<svg width="20" height="16" viewBox="0 0 20 16" fill="none" xmlns="http://www.w3.org/2000/svg">
<path d="M10 -4.37114e-07C9.73478 -4.48707e-07 9.48043 0.105357 9.29289 0.292893C9.10536 0.480429 9 0.734783 9 1L9 8.59L6.71 6.29C6.61704 6.19627 6.50644 6.12188 6.38458 6.07111C6.26272 6.02034 6.13201 5.9942 6 5.9942C5.86799 5.9942 5.73728 6.02034 5.61542 6.07111C5.49356 6.12188 5.38296 6.19627 5.29 6.29C5.19627 6.38296 5.12188 6.49356 5.07111 6.61542C5.02034 6.73728 4.9942 6.86799 4.9942 7C4.9942 7.13201 5.02034 7.26272 5.07111 7.38458C5.12188 7.50644 5.19627 7.61704 5.29 7.71L9.29 11.71C9.3851 11.801 9.49725 11.8724 9.62 11.92C9.86346 12.02 10.1365 12.02 10.38 11.92C10.5028 11.8724 10.6149 11.801 10.71 11.71L14.71 7.71C14.8032 7.61676 14.8772 7.50607 14.9277 7.38425C14.9781 7.26243 15.0041 7.13186 15.0041 7C15.0041 6.86814 14.9781 6.73757 14.9277 6.61575C14.8772 6.49393 14.8032 6.38324 14.71 6.29C14.6168 6.19676 14.5061 6.1228 14.3842 6.07234C14.2624 6.02188 14.1319 5.99591 14 5.99591C13.8681 5.99591 13.7376 6.02188 13.6158 6.07234C13.4939 6.1228 13.3832 6.19676 13.29 6.29L11 8.59L11 1C11 0.734783 10.8946 0.480429 10.7071 0.292893C10.5196 0.105357 10.2652 -4.25521e-07 10 -4.37114e-07ZM20 13L20 3C20 2.20435 19.6839 1.44129 19.1213 0.87868C18.5587 0.316071 17.7956 -9.63552e-08 17 -1.31134e-07L14 -2.62268e-07C13.7348 -2.73861e-07 13.4804 0.105357 13.2929 0.292893C13.1054 0.480429 13 0.734783 13 1C13 1.26522 13.1054 1.51957 13.2929 1.70711C13.4804 1.89464 13.7348 2 14 2L17 2C17.2652 2 17.5196 2.10536 17.7071 2.29289C17.8946 2.48043 18 2.73478 18 3L18 13C18 13.2652 17.8946 13.5196 17.7071 13.7071C17.5196 13.8946 17.2652 14 17 14L3 14C2.73478 14 2.48043 13.8946 2.29289 13.7071C2.10536 13.5196 2 13.2652 2 13L2 3C2 2.73478 2.10536 2.48043 2.29289 2.29289C2.48043 2.10536 2.73478 2 3 2L6 2C6.26522 2 6.51957 1.89464 6.70711 1.70711C6.89464 1.51957 7 1.26522 7 0.999999C7 0.734783 6.89464 0.480429 6.70711 0.292893C6.51957 0.105356 6.26522 -6.00366e-07 6 -6.11959e-07L3 -7.43094e-07C2.20435 -7.77873e-07 1.44129 0.31607 0.878679 0.878679C0.31607 1.44129 -9.63552e-08 2.20435 -1.31134e-07 3L-5.68248e-07 13C-6.03027e-07 13.7956 0.31607 14.5587 0.878679 15.1213C1.44129 15.6839 2.20435 16 3 16L17 16C17.7956 16 18.5587 15.6839 19.1213 15.1213C19.6839 14.5587 20 13.7956 20 13Z" fill="#0B7A7D"/>
</svg>
