<svg width="55.8" height="21.4" enable-background="new 0 0 55.8 21.4" viewBox="0 0 55.8 21.4" xmlns="http://www.w3.org/2000/svg"><g fill="#1e9994"><path d="m8.4 4-5.6 4.5h-2.8v4.5h2.8l5.6 4.5z"/><path d="m31.9 10.7c0-1.9-1.5-3.4-3.4-3.4v6.7c1.9 0 3.4-1.5 3.4-3.3zm-4.9-6.7-5.6 4.4h-2.8v4.6h2.8l5.6 4.5z"/><path d="m55.8 10.9c0-5.2-3.6-9.6-8.7-10.7v2.3c4.6 1.2 7.4 6 6.1 10.6-.8 3-3.1 5.4-6.1 6.1v2.3c5.1-1 8.7-5.4 8.7-10.6zm-5.3 0c0-1.9-1.5-3.4-3.4-3.4v6.7c1.9 0 3.4-1.5 3.4-3.3zm-4.9-6.7-5.6 4.5h-2.8v4.5h2.8l5.6 4.5z"/></g></svg>