<svg viewBox="0 0 108 31.87" xmlns="http://www.w3.org/2000/svg"><g fill="#fff"><path d="M16.21 14.05c-2.08 0-2.43 1.54-2.43 4.6 0 2.84.35 4.31 2.41 4.31s2.42-1.49 2.42-4.48-.27-4.43-2.4-4.43z"/><path d="M16 0a15.94 15.94 0 1 0 15.89 15.93A15.94 15.94 0 0 0 16 0zm.24 23.43a4.67 4.67 0 0 1-4.66-4.92 4.75 4.75 0 0 1 4.68-4.93 4.13 4.13 0 0 1 1.84.42 11.62 11.62 0 0 0-2.26-3.77l-.46-.44a13.5 13.5 0 0 0-3.14-2.35l.17-.44a16.31 16.31 0 0 1 4 2.23l.51.46a10.52 10.52 0 0 1 4 8.2c-.03 3.48-2.04 5.54-4.73 5.54zM108 28v-.71h-1.5v-1.17h1.44v-.71h-1.44v-.93h1.5v-.71h-2.32V28zm-5-2.91c0 .42-.28.65-.8.65h-.2v-1.31h.25c.51 0 .79.21.79.62m1.2 2.91l-1.32-1.77a1.1 1.1 0 0 0 1-1.18c0-.79-.54-1.24-1.48-1.24h-1.22V28h.78v-1.73h.11l1.08 1.73zm-5-1.64v-2.55h-.81v2.4a1.27 1.27 0 0 1-.14.75.89.89 0 0 1-1.46 0 1.27 1.27 0 0 1-.14-.75v-2.4h-.81v2.55a1.79 1.79 0 0 0 .3 1.13 1.75 1.75 0 0 0 1.38.6 1.55 1.55 0 0 0 1.68-1.73m-4.84-1.84v-.71h-2.69v.71h.93V28h.82v-3.52zm-5 1.93h-1.16l.61-1.5zM90.92 28l-1.76-4.28h-.62L86.73 28h.87l.37-.89h1.72L90 28zm-6.41-2.91c0 .42-.28.65-.8.65h-.24v-1.31h.25c.51 0 .79.21.79.62m1.2 2.95l-1.31-1.81a1.1 1.1 0 0 0 .95-1.19c0-.79-.54-1.24-1.48-1.24h-1.21V28h.81v-1.73h.11L84.71 28zm-4.79 0v-.71h-1.5v-1.17h1.45v-.71h-1.45v-.93h1.5v-.71h-2.31V28zm-3.78-3.48v-.71h-2.69v.71h.93V28h.82v-3.52zM73 23.77h-.81V28H73zM70.66 28v-.71h-1.28v-3.52h-.82V28zm-6.27-3.48v-.71h-2.21V28H63v-1.88h1.3v-.71H63v-.93zm-4.75 1.38a1.4 1.4 0 1 1-1.39-1.44 1.42 1.42 0 0 1 1.39 1.44m.84 0a2.24 2.24 0 1 0-2.23 2.19 2.18 2.18 0 0 0 2.23-2.19m-8.16-2.09h-1l-.89 1.46-.9-1.46h-1L50 26v2h.81v-2zm-4.94.71v-.71h-2.7v.71h.94V28h.81v-3.52zm-4.16-.71h-.81V28h.81zm-2.52 4v-1a1.3 1.3 0 0 1-1 .45 1.37 1.37 0 0 1-1.41-1.44 1.39 1.39 0 0 1 1.37-1.44 1.35 1.35 0 0 1 1 .47v-1a2.06 2.06 0 0 0-1-.25 2.2 2.2 0 0 0-2.23 2.19 2.17 2.17 0 0 0 2.21 2.18 2.3 2.3 0 0 0 1-.24M79.08 17A2.09 2.09 0 1 1 77 14.84 2.13 2.13 0 0 1 79.08 17m1.25 0A3.34 3.34 0 1 0 77 20.25 3.26 3.26 0 0 0 80.33 17m-8.91 2.91v-1.46a1.92 1.92 0 0 1-1.47.69 2 2 0 0 1-2.1-2.14 2.07 2.07 0 0 1 2.05-2.14 2 2 0 0 1 1.52.7v-1.45a3 3 0 0 0-1.5-.39A3.28 3.28 0 0 0 66.6 17a3.23 3.23 0 0 0 3.3 3.26 3.35 3.35 0 0 0 1.52-.36m-7-1.68c0-1-.41-1.44-1.79-1.95-.73-.27-1-.45-1-.79s.38-.69.91-.69a1.26 1.26 0 0 1 1 .51l.64-.84a2.74 2.74 0 0 0-1.84-.69 1.84 1.84 0 0 0-2 1.79c0 .86.4 1.3 1.54 1.71a4.3 4.3 0 0 1 .84.36.73.73 0 0 1 .37.64.89.89 0 0 1-1 .89 1.45 1.45 0 0 1-1.33-.84l-.78.76a2.43 2.43 0 0 0 2.16 1.19 2 2 0 0 0 2.15-2.05m-6.49 1.9v-1.07h-2.1v-1.68h2.16v-1.06H55.7v-1.39h2.24v-1.06h-3.45v6.25zm-6.29.12v-6.38h-1.08v4.21l-3.8-4.35h-.85v6.39H47v-4.22l3.8 4.34zm-8.71-2.56v-3.82h-1.07v3.58a1.91 1.91 0 0 1-.2 1.12 1.28 1.28 0 0 1-1.1.58 1.26 1.26 0 0 1-1.09-.58 1.91 1.91 0 0 1-.2-1.12v-3.58h-1.22v3.81a2.62 2.62 0 0 0 .46 1.68 2.8 2.8 0 0 0 4.11 0 2.69 2.69 0 0 0 .45-1.68M85.79 11.06V4.69h-1.21v4.2l-3.81-4.34h-.84v6.39h1.22V6.71L85 11.06zm-8.7-6.37h-1.22v6.25h1.22zm-5 3.12a2.1 2.1 0 0 1-.68 1.57 2.28 2.28 0 0 1-1.66.5h-.33V5.75h.33a2.26 2.26 0 0 1 1.66.5 2.09 2.09 0 0 1 .68 1.56m1.25 0A3.1 3.1 0 0 0 70 4.69h-1.8v6.25H70a3.24 3.24 0 0 0 2.23-.73 3.14 3.14 0 0 0 1.13-2.39m-7.72 3.12V9.88h-2.26V8.19h2.15V7.13h-2.15V5.75h2.24V4.69h-3.46v6.25zm-6.3.12V4.69H58.1v4.2l-3.8-4.34h-.84v6.39h1.21V6.71l3.81 4.35zM50.62 8.5V4.69H49.4v3.58a1.87 1.87 0 0 1-.2 1.11 1.24 1.24 0 0 1-1.09.58A1.25 1.25 0 0 1 47 9.38a1.87 1.87 0 0 1-.2-1.11V4.69h-1.2V8.5a2.69 2.69 0 0 0 .45 1.68 2.8 2.8 0 0 0 4.11 0 2.62 2.62 0 0 0 .46-1.68m-8.81-.69a2.13 2.13 0 0 1-.67 1.57 2.3 2.3 0 0 1-1.67.5h-.33V5.75h.33a2.29 2.29 0 0 1 1.67.5 2.12 2.12 0 0 1 .67 1.56m1.26 0a3.11 3.11 0 0 0-3.36-3.13h-1.79v6.25h1.78a3.24 3.24 0 0 0 2.23-.73 3.15 3.15 0 0 0 1.14-2.39"/></g></svg>