<svg viewBox="0 0 805 140" xmlns="http://www.w3.org/2000/svg">

   <g fill="none" fill-rule="evenodd">
<g transform="translate(159.59 .67087)" fill="#060403">
<path d="m446.99 97.974c-0.31909 0-0.53004 0.21322-0.53004 0.53127v7.0185c0 0.21322-0.10636 0.31983-0.31909 0.31983h-1.6965c-0.31909 0-0.53181 0.21322-0.53181 0.53127v4.1489c0 0.31805 0.21272 0.53127 0.53181 0.53127h1.6965c0.21272 0 0.31909 0.10661 0.31909 0.31805v12.763c0 4.9982 1.9624 7.4964 7.1085 7.4964h2.5456c0.31909 0 0.53181-0.21322 0.53181-0.53127v-4.307c0-0.31983-0.21272-0.53127-0.53181-0.53127h-1.326c-1.6451 0-2.3878-0.58635-2.3878-2.3934v-12.496c0-0.21144 0.10636-0.31805 0.31909-0.31805h3.3947c0.31909 0 0.53181-0.21322 0.53181-0.53127v-4.1489c0-0.31805-0.21272-0.53127-0.53181-0.53127h-3.3947c-0.21272 0-0.31909-0.10661-0.31909-0.31983v-7.0185c0-0.31805-0.21095-0.53127-0.53004-0.53127h-4.8803zm25.889 7.285c-5.093 0-9.0195 2.6048-10.452 7.0718-0.53004 1.6489-0.84735 3.6691-0.84735 6.3273s0.3705 4.6268 0.90053 6.274c1.4323 4.4669 5.2525 7.1268 10.663 7.1268 4.7225 0 8.3299-1.8088 10.505-4.3603 0.21095-0.26652 0.21095-0.53305-0.053181-0.74449l-3.1306-2.7665c-0.26413-0.21144-0.53004-0.15814-0.79594 0.10661-1.2728 1.3824-3.1288 2.4467-5.9935 2.4467-2.8647 0-4.8803-1.3824-5.7294-3.8824-0.21272-0.58457-0.37227-1.2225-0.37227-1.9669 0-0.21322 0.10636-0.31805 0.31909-0.31805h15.756c0.3705 0 0.58322-0.21322 0.58322-0.53305 0-4.1471-0.2659-5.9026-0.84912-7.7096-1.4323-4.3603-5.2525-7.0718-10.503-7.0718zm0.053182 5.0515c2.3861 0 4.297 1.2225 4.9866 3.296 0.21095 0.63788 0.31731 1.2758 0.31731 2.1802 0 0.21322-0.10636 0.31983-0.31731 0.31983h-10.026c-0.21272 0-0.31909-0.10661-0.31909-0.31983 0-0.9044 0.10636-1.5423 0.31909-2.1802 0.68958-2.0736 2.5988-3.296 5.0398-3.296zm31.405-5.0515c-3.4479 0-5.5698 1.2758-6.7912 3.0313h-0.053181v-1.9154c0-0.31805-0.21095-0.53127-0.53004-0.53127h-8.0108c-0.31731 0-0.53004 0.21322-0.53004 0.53127v4.1489c0 0.31805 0.21272 0.53127 0.53004 0.53127h2.2815c0.21272 0 0.31909 0.10661 0.31909 0.31805v24.142c0 0.21144-0.10636 0.31805-0.31909 0.31805h-2.2815c-0.31731 0-0.53004 0.21322-0.53004 0.53305v4.1471c0 0.31805 0.21272 0.53127 0.53004 0.53127h11.141c0.31731 0 0.53004-0.21322 0.53004-0.53127v-4.1471c0-0.31983-0.21272-0.53305-0.53004-0.53305h-2.2815c-0.21272 0-0.31909-0.10661-0.31909-0.31805v-6.4872h0.053181c1.2214 1.7537 3.3433 3.0313 6.7912 3.0313 4.3502 0 7.5322-2.0753 8.86-6.1691 0.6364-1.9669 0.90053-3.7757 0.90053-7.2317s-0.26413-5.2629-0.90053-7.2317c-1.3278-4.0938-4.5098-6.1674-8.86-6.1674zm-1.5387 5.3163c2.3878 0 4.0311 1.1709 4.7207 3.2978 0.37227 1.1692 0.53181 2.4449 0.53181 4.785s-0.15954 3.6158-0.53181 4.7868c-0.68958 2.1269-2.3329 3.296-4.7207 3.296-2.441 0-4.0843-1.1691-4.7739-3.296-0.37227-1.1709-0.53181-2.4467-0.53181-4.7868s0.15954-3.6158 0.53181-4.785c0.68958-2.1269 2.3329-3.2978 4.7739-3.2978zm27.427-5.3163c-5.1993 0-9.1259 2.6048-10.558 7.0718-0.58322 1.807-0.84735 3.5092-0.84735 6.3273s0.26413 4.5202 0.84735 6.3273c1.4323 4.4669 5.3589 7.0735 10.558 7.0735 5.1444 0 9.0709-2.6066 10.503-7.0735 0.58322-1.807 0.84912-3.5092 0.84912-6.3273s-0.26591-4.5202-0.84912-6.3273c-1.4323-4.4669-5.3589-7.0718-10.503-7.0718zm0 5.3163c2.3861 0 4.0843 1.2242 4.7739 3.3511 0.42368 1.3824 0.53004 2.5515 0.53004 4.7317s-0.10636 3.4026-0.53004 4.7335c-0.74276 2.1269-2.3878 3.3493-4.7739 3.3493-2.3878 0-4.0861-1.2225-4.8288-3.3493-0.42368-1.3308-0.53004-2.5533-0.53004-4.7335s0.10636-3.3493 0.53004-4.7317c0.68958-2.1269 2.441-3.3511 4.8288-3.3511zm18.461-12.601c-0.31909 0-0.53181 0.21322-0.53181 0.53127v7.0185c0 0.21322-0.10459 0.31983-0.31731 0.31983h-1.6983c-0.31731 0-0.53004 0.21322-0.53004 0.53127v4.1489c0 0.31805 0.21272 0.53127 0.53004 0.53127h1.6983c0.21272 0 0.31731 0.10661 0.31731 0.31805v12.763c0 4.9982 1.9642 7.4964 7.1103 7.4964h2.5456c0.31909 0 0.53004-0.21322 0.53004-0.53127v-4.307c0-0.31983-0.21095-0.53127-0.53004-0.53127h-1.326c-1.6451 0-2.3878-0.58635-2.3878-2.3934v-12.496c0-0.21144 0.10636-0.31805 0.31909-0.31805h3.3947c0.31909 0 0.53004-0.21322 0.53004-0.53127v-4.1489c0-0.31805-0.21095-0.53127-0.53004-0.53127h-3.3947c-0.21272 0-0.31909-0.10661-0.31909-0.31983v-7.0185c0-0.31805-0.21095-0.53127-0.53004-0.53127h-4.8803zm18.831-2.6581c-0.31731 0-0.53004 0.21144-0.53004 0.53127v4.6268c0 0.31805 0.21272 0.53127 0.53004 0.53127h4.882c0.31731 0 0.53004-0.21322 0.53004-0.53127v-4.6268c0-0.31983-0.21272-0.53127-0.53004-0.53127h-4.882zm-3.1288 10.528c-0.31909 0-0.53004 0.21322-0.53004 0.53127v4.1489c0 0.31805 0.21095 0.53127 0.53004 0.53127h2.2815c0.21095 0 0.31731 0.10661 0.31731 0.31805v14.57c0 0.21322-0.10636 0.31983-0.31731 0.31983h-2.2815c-0.31909 0-0.53004 0.21144-0.53004 0.53127v4.1471c0 0.31983 0.21095 0.53127 0.53004 0.53127h11.14c0.31909 0 0.53004-0.21144 0.53004-0.53127v-4.1471c0-0.31983-0.21095-0.53127-0.53004-0.53127h-2.2815c-0.21095 0-0.31731-0.10661-0.31731-0.31983v-19.568c0-0.31805-0.21272-0.53127-0.53004-0.53127h-8.0108z"/>
<path d="m420.01 93.43h12.836c0.34213 0 0.57967-0.23809 0.57967-0.58102v-2.9815c0-0.3447-0.23754-0.58457-0.57967-0.58457h-12.836c-0.34213 0-0.58145 0.23987-0.58145 0.58457v2.9815c0 0.34293 0.23932 0.58102 0.58145 0.58102"/>
<path d="m438.3 105.78c-1.6876-5.215-5.896-8.0863-11.851-8.0863-5.9261 0-10.117 2.8713-11.801 8.0863-0.70199 2.1055-0.88281 3.9925-0.88281 9.1755 0 5.183 0.18082 7.07 0.88281 9.1773 1.6841 5.215 5.8747 8.0863 11.801 8.0863 5.9545 0 10.163-2.8713 11.851-8.0863 0.70199-2.1073 0.88281-3.9943 0.88281-9.1773 0-5.183-0.18082-7.07-0.88281-9.1755m-18.493 9.1755c0-4.8632 0.20386-6.4232 0.58145-7.5995 0.98031-2.8482 3.0189-4.2928 6.0609-4.2928 3.0739 0 5.1284 1.4446 6.1105 4.291 0.37759 1.178 0.58145 2.7381 0.58145 7.6012 0 4.8383-0.2145 6.4516-0.58145 7.603-0.98208 2.8465-3.0384 4.2893-6.1105 4.2893-3.0402 0-5.0806-1.4428-6.0609-4.2875-0.36872-1.1532-0.58145-2.7665-0.58145-7.6048"/>
<path d="m413.8 1.4831c-0.31731 0-0.53004 0.21144-0.53004 0.53127v1.5903c0 0.31805 0.21272 0.53127 0.53004 0.53127h2.964c0.21095 0 0.31731 0.10483 0.31731 0.31805v30.13c0 0.21322-0.10636 0.31805-0.31731 0.31805h-2.964c-0.31731 0-0.53004 0.21322-0.53004 0.53127v1.592c0 0.31805 0.21272 0.52949 0.53004 0.52949h9.4201c0.31731 0 0.53004-0.21144 0.53004-0.52949v-1.592c0-0.31805-0.21272-0.53127-0.53004-0.53127h-2.964c-0.21095 0-0.31731-0.10483-0.31731-0.31805v-4.4545l5.3447-6.3131 7.7804 13.209c0.21272 0.31805 0.47686 0.52949 0.90053 0.52949h4.2864c0.31731 0 0.52827-0.21144 0.52827-0.52949v-1.592c0-0.31805-0.21095-0.53127-0.52827-0.53127h-2.753c-0.26413 0-0.4219-0.051528-0.58145-0.31805l-7.7272-12.996 5.3465-6.3664c0.21095-0.26475 0.3705-0.31805 0.58145-0.31805h3.0703c0.31731 0 0.52827-0.21144 0.52827-0.52949v-1.592c0-0.31805-0.21095-0.52949-0.52827-0.52949h-4.0223c-0.3705 0-0.6364 0.15814-0.90053 0.47619l-11.326 13.369v-24.083c0-0.31983-0.21095-0.53127-0.52826-0.53127h-5.6106zm38.157 10.238c-3.0171 0-5.9279 0.68941-7.885 1.8035-0.2659 0.15991-0.3705 0.37136-0.3705 0.68941v4.5629c0 0.31805 0.21095 0.52949 0.52827 0.52949h1.7461c0.31909 0 0.53004-0.21144 0.53004-0.52949v-3.1308c0-0.21144 0.053181-0.26475 0.26413-0.37136 1.271-0.5828 3.1235-0.95415 5.0806-0.95415 4.8696 0 6.2984 1.7502 6.2984 5.9417v2.5462c0 0.21144-0.10636 0.31805-0.31731 0.31805h-6.2984c-6.0857 0-9.5797 2.4396-9.5797 7.4786 0 4.9342 3.3876 7.4804 8.4682 7.4804 4.1286 0 6.7221-1.592 7.7272-3.7136h0.053181v2.6528c0 0.31805 0.21095 0.52949 0.52827 0.52949h5.5042c0.31731 0 0.53004-0.21144 0.53004-0.52949v-1.592c0-0.31805-0.21272-0.53127-0.53004-0.53127h-2.964c-0.21095 0-0.31731-0.10483-0.31731-0.31805v-14.481c0-6.2064-2.6981-8.3813-8.9965-8.3813zm5.8747 13.845c0.21095 0 0.31731 0.10661 0.31731 0.31805v3.8735c0 3.5003-2.8044 5.7285-7.144 5.7285-4.0223 0-6.2452-1.7502-6.2452-4.9342 0-3.3404 2.1698-4.9858 7.144-4.9858h5.9279zm26.725-13.314c-0.31731 0-0.52827 0.21144-0.52827 0.52949v1.592c0 0.31805 0.21095 0.52949 0.52827 0.52949h2.964c0.21095 0 0.31731 0.10661 0.31731 0.31805v13.102c0 4.3514-2.9108 7.0025-6.6689 7.0025-4.391 0-6.403-2.4929-6.403-7.5853v-14.959c0-0.31805-0.21095-0.52949-0.52827-0.52949h-5.6106c-0.31731 0-0.53004 0.21144-0.53004 0.52949v1.592c0 0.31805 0.21272 0.52949 0.53004 0.52949h2.964c0.21095 0 0.31731 0.10661 0.31731 0.31805v13.262c0 6.0998 3.0686 9.602 8.626 9.602 3.3345 0 5.9811-1.4854 7.2504-4.0316h0.053182v2.9708c0 0.31805 0.21272 0.52949 0.53004 0.52949h5.6088c0.31731 0 0.53004-0.21144 0.53004-0.52949v-1.592c0-0.31805-0.21272-0.53127-0.53004-0.53127h-2.964c-0.21095 0-0.31731-0.10483-0.31731-0.31805v-21.802c0-0.31805-0.21095-0.52949-0.52827-0.52949h-5.6106zm28.367-0.53127c-3.494 0-6.0857 1.592-7.3035 4.0849h-0.053182v-3.0242c0-0.31805-0.21095-0.52949-0.52826-0.52949h-5.6106c-0.31731 0-0.53004 0.21144-0.53004 0.52949v1.592c0 0.31805 0.21272 0.52949 0.53004 0.52949h2.964c0.21095 0 0.31731 0.10661 0.31731 0.31805v19.362c0 0.21322-0.10636 0.31805-0.31731 0.31805h-2.964c-0.31731 0-0.53004 0.21322-0.53004 0.53127v1.592c0 0.31805 0.21272 0.52949 0.53004 0.52949h9.4201c0.31731 0 0.53004-0.21144 0.53004-0.52949v-1.592c0-0.31805-0.21272-0.53127-0.53004-0.53127h-2.964c-0.21095 0-0.31731-0.10483-0.31731-0.31805v-13.049c0-4.403 2.9108-7.0558 6.7221-7.0558 4.3396 0 6.5094 2.4947 6.5094 7.587v12.518c0 0.21322-0.10636 0.31805-0.31731 0.31805h-2.964c-0.31731 0-0.53004 0.21322-0.53004 0.53127v1.592c0 0.31805 0.21272 0.52949 0.53004 0.52949h9.367c0.31731 0 0.53004-0.21144 0.53004-0.52949v-1.592c0-0.31805-0.21272-0.53127-0.53004-0.53127h-2.9108c-0.21095 0-0.31731-0.10483-0.31731-0.31805v-13.207c0-6.1549-3.1749-9.6553-8.7323-9.6553zm20.799-10.238c-0.31909 0-0.53004 0.21144-0.53004 0.53127v2.9691c0 0.31983 0.21095 0.53127 0.53004 0.53127h2.3276c0.31731 0 0.53004-0.21144 0.53004-0.53127v-2.9691c0-0.31983-0.21272-0.53127-0.53004-0.53127h-2.3276zm-3.5472 10.769c-0.31731 0-0.52827 0.21144-0.52827 0.52949v1.592c0 0.31805 0.21095 0.52949 0.52827 0.52949h2.964c0.21272 0 0.31731 0.10661 0.31731 0.31805v19.362c0 0.21322-0.10459 0.31805-0.31731 0.31805h-2.964c-0.31731 0-0.52827 0.21322-0.52827 0.53127v1.592c0 0.31805 0.21095 0.52949 0.52827 0.52949h9.4201c0.31909 0 0.53004-0.21144 0.53004-0.52949v-1.592c0-0.31805-0.21095-0.53127-0.53004-0.53127h-2.9622c-0.21272 0-0.31909-0.10483-0.31909-0.31805v-21.802c0-0.31805-0.21095-0.52949-0.52827-0.52949h-5.6106zm14.871-10.769c-0.31731 0-0.52826 0.21144-0.52826 0.53127v1.5903c0 0.31805 0.21095 0.53127 0.52826 0.53127h2.964c0.21095 0 0.31731 0.10483 0.31731 0.31805v30.13c0 0.21322-0.10636 0.31805-0.31731 0.31805h-2.964c-0.31731 0-0.52826 0.21322-0.52826 0.53127v1.592c0 0.31805 0.21095 0.52949 0.52826 0.52949h9.4201c0.31731 0 0.53004-0.21144 0.53004-0.52949v-1.592c0-0.31805-0.21272-0.53127-0.53004-0.53127h-2.9622c-0.21272 0-0.31909-0.10483-0.31909-0.31805v-13.049c0-4.403 2.9108-7.0558 6.7221-7.0558 4.3396 0 6.5094 2.4947 6.5094 7.587v12.518c0 0.21322-0.10636 0.31805-0.31731 0.31805h-2.964c-0.31731 0-0.52827 0.21322-0.52827 0.53127v1.592c0 0.31805 0.21095 0.52949 0.52827 0.52949h9.367c0.31731 0 0.53004-0.21144 0.53004-0.52949v-1.592c0-0.31805-0.21272-0.53127-0.53004-0.53127h-2.9108c-0.21095 0-0.31731-0.10483-0.31731-0.31805v-13.207c0-6.1549-3.1749-9.6553-8.7323-9.6553-3.4922 0-6.0857 1.592-7.3035 4.0849h-0.053181v-13.792c0-0.31983-0.21095-0.53127-0.52827-0.53127h-5.6106zm41.068 10.238c-4.5505 0-7.9913 2.3347-9.367 6.5778-0.47686 1.5387-0.74099 3.3955-0.74099 6.5778 0 3.0242 0.21095 4.9858 0.74099 6.5245 1.4288 4.3497 4.7633 6.6844 9.6843 6.6844 4.1818 0 7.3567-1.7502 9.2092-4.2448 0.21272-0.26475 0.21272-0.52949-0.053181-0.74271l-1.2161-1.1141c-0.26591-0.21144-0.53004-0.15814-0.74099 0.10661-1.482 1.8568-3.7581 3.2356-7.0394 3.2356-3.4922 0-6.0325-1.6436-7.144-4.9325-0.3705-1.1141-0.53004-2.3347-0.53004-4.4563 0-0.21144 0.10636-0.37136 0.31731-0.37136h16.46c0.3705 0 0.58145-0.21144 0.58145-0.52949 0-3.5021-0.21095-5.1457-0.74099-6.7377-1.3756-4.2431-4.8147-6.5778-9.4201-6.5778zm0 2.6528c3.2813 0 5.7684 1.5903 6.7753 4.7743 0.31731 1.0075 0.47508 2.1215 0.47508 3.6603 0 0.21144-0.10459 0.31805-0.31731 0.31805h-13.813c-0.21095 0-0.31731-0.10661-0.31731-0.31805 0-1.5387 0.15954-2.6528 0.47686-3.6603 1.0051-3.1841 3.439-4.7743 6.7203-4.7743zm29.055-2.4929c-3.5454 0-5.8747 2.0682-6.933 4.6677h-0.053181v-3.7669c0-0.31805-0.21095-0.52949-0.52827-0.52949h-5.6106c-0.31731 0-0.52827 0.21144-0.52827 0.52949v1.592c0 0.31805 0.21095 0.52949 0.52827 0.52949h2.964c0.21095 0 0.31731 0.10661 0.31731 0.31805v19.362c0 0.21322-0.10636 0.31805-0.31731 0.31805h-2.964c-0.31731 0-0.52827 0.21322-0.52827 0.53127v1.592c0 0.31805 0.21095 0.52949 0.52827 0.52949h9.8438c0.31731 0 0.53004-0.21144 0.53004-0.52949v-1.592c0-0.31805-0.21272-0.53127-0.53004-0.53127h-3.3876c-0.21095 0-0.31731-0.10483-0.31731-0.31805v-11.246c0-5.8884 2.9108-8.646 6.7221-8.646 1.2693 0 2.4339 0.21144 3.1749 0.37136 0.42368 0.10661 0.58322-0.15991 0.58322-0.47797v-1.7502c0-0.31805-0.15954-0.47797-0.47686-0.5828-0.58322-0.21322-1.5352-0.37136-3.0171-0.37136zm16.83-0.15991c-3.0171 0-5.9279 0.68941-7.885 1.8035-0.26413 0.15991-0.3705 0.37136-0.3705 0.68941v4.5629c0 0.31805 0.21095 0.52949 0.52827 0.52949h1.7479c0.31731 0 0.52827-0.21144 0.52827-0.52949v-3.1308c0-0.21144 0.053181-0.26475 0.26413-0.37136 1.271-0.5828 3.1235-0.95415 5.0806-0.95415 4.8696 0 6.2984 1.7502 6.2984 5.9417v2.5462c0 0.21144-0.10636 0.31805-0.31731 0.31805h-6.2984c-6.0857 0-9.5779 2.4396-9.5779 7.4786 0 4.9342 3.3859 7.4804 8.4664 7.4804 4.1286 0 6.7221-1.592 7.7272-3.7136h0.053181v2.6528c0 0.31805 0.21095 0.52949 0.53004 0.52949h5.5025c0.31909 0 0.53004-0.21144 0.53004-0.52949v-1.592c0-0.31805-0.21095-0.53127-0.53004-0.53127h-2.9622c-0.21272 0-0.31909-0.10483-0.31909-0.31805v-14.481c0-6.2064-2.6981-8.3813-8.9965-8.3813zm5.8747 13.845c0.21095 0 0.31731 0.10661 0.31731 0.31805v3.8735c0 3.5003-2.8044 5.7285-7.144 5.7285-4.0223 0-6.2452-1.7502-6.2452-4.9342 0-3.3404 2.1698-4.9858 7.144-4.9858h5.9279z"/>
<path d="m423.85 54.125c-3.0171 0-5.9279 0.68941-7.885 1.8035-0.2659 0.15991-0.3705 0.37136-0.3705 0.68941v4.5629c0 0.31805 0.21095 0.52949 0.52827 0.52949h1.7461c0.31909 0 0.53004-0.21144 0.53004-0.52949v-3.1308c0-0.21144 0.053181-0.26475 0.26413-0.37136 1.271-0.5828 3.1235-0.95415 5.0806-0.95415 4.8696 0 6.2984 1.7502 6.2984 5.9417v2.5462c0 0.21144-0.10636 0.31805-0.31731 0.31805h-6.2984c-6.0857 0-9.5797 2.4396-9.5797 7.4786 0 4.9342 3.3876 7.4804 8.4682 7.4804 4.1286 0 6.7221-1.592 7.7272-3.7136h0.053181v2.6528c0 0.31805 0.21095 0.52949 0.52827 0.52949h5.5042c0.31731 0 0.53004-0.21144 0.53004-0.52949v-1.592c0-0.31805-0.21272-0.52949-0.53004-0.52949h-2.964c-0.21095 0-0.31731-0.10661-0.31731-0.31983v-14.481c0-6.2064-2.6981-8.3813-8.9965-8.3813zm5.8747 13.845c0.21095 0 0.31731 0.10661 0.31731 0.31805v3.8735c0 3.5003-2.8044 5.7285-7.144 5.7285-4.0223 0-6.2452-1.7502-6.2452-4.9342 0-3.3404 2.1698-4.9858 7.144-4.9858h5.9279zm11.801-3.5003c-0.31731 0-0.52827 0.21144-0.52827 0.52949v1.6453c0 0.31805 0.21095 0.52949 0.52827 0.52949h13.549c0.31731 0 0.53004-0.21144 0.53004-0.52949v-1.6453c0-0.31805-0.21272-0.52949-0.53004-0.52949h-13.549zm32.6-10.185c-3.5454 0-5.873 2.0682-6.9313 4.6677h-0.053181v-3.7669c0-0.31805-0.21272-0.52949-0.53004-0.52949h-5.6088c-0.31909 0-0.53004 0.21144-0.53004 0.52949v1.592c0 0.31805 0.21095 0.52949 0.53004 0.52949h2.9622c0.21272 0 0.31909 0.10661 0.31909 0.31805v19.362c0 0.21322-0.10636 0.31983-0.31909 0.31983h-2.9622c-0.31909 0-0.53004 0.21144-0.53004 0.52949v1.592c0 0.31805 0.21095 0.52949 0.53004 0.52949h9.8421c0.31909 0 0.53004-0.21144 0.53004-0.52949v-1.592c0-0.31805-0.21095-0.52949-0.53004-0.52949h-3.3859c-0.21272 0-0.31731-0.10661-0.31731-0.31983v-11.246c0-5.8884 2.9108-8.646 6.7203-8.646 1.271 0 2.4357 0.21144 3.1749 0.37136 0.42368 0.10661 0.58322-0.15991 0.58322-0.47797v-1.7502c0-0.31805-0.15954-0.47797-0.47686-0.5828-0.58145-0.21322-1.5352-0.37136-3.0171-0.37136zm18.418-0.15991c-4.6055 0-8.0445 2.3863-9.4201 6.5778-0.53004 1.6969-0.84735 3.5536-0.84735 6.5778 0 3.0775 0.31731 4.9325 0.84735 6.6311 1.3756 4.1897 4.8147 6.5778 9.4201 6.5778 4.6569 0 8.0977-2.388 9.4733-6.5778 0.52826-1.6986 0.84558-3.5536 0.84558-6.6311 0-3.0242-0.31731-4.8809-0.84558-6.5778-1.3756-4.1915-4.8164-6.5778-9.4733-6.5778zm0 2.7576c3.2813 0 5.7152 1.6986 6.7203 4.7228 0.47686 1.4321 0.68781 2.9691 0.68781 5.6752 0 2.7576-0.21095 4.2964-0.68781 5.7285-1.0051 3.0242-3.439 4.721-6.7203 4.721-3.2281 0-5.6638-1.6969-6.6689-4.721-0.47686-1.4321-0.68781-2.9708-0.68781-5.7285 0-2.7061 0.21095-4.2431 0.68781-5.6752 1.0051-3.0242 3.4408-4.7228 6.6689-4.7228zm16.14-12.996c-0.31731 0-0.52827 0.21144-0.52827 0.53127v1.5903c0 0.31805 0.21095 0.53127 0.52827 0.53127h2.964c0.21095 0 0.31731 0.10483 0.31731 0.31805v30.13c0 0.21322-0.10636 0.31983-0.31731 0.31983h-2.964c-0.31731 0-0.52827 0.21144-0.52827 0.52949v1.592c0 0.31805 0.21095 0.52949 0.52827 0.52949h9.4201c0.31731 0 0.53004-0.21144 0.53004-0.52949v-1.592c0-0.31805-0.21272-0.52949-0.53004-0.52949h-2.964c-0.21095 0-0.31731-0.10661-0.31731-0.31983v-13.049c0-4.403 2.9108-7.0558 6.7221-7.0558 4.3396 0 6.5094 2.4947 6.5094 7.587v12.518c0 0.21322-0.10636 0.31983-0.31731 0.31983h-2.964c-0.31731 0-0.53004 0.21144-0.53004 0.52949v1.592c0 0.31805 0.21272 0.52949 0.53004 0.52949h9.367c0.31731 0 0.53004-0.21144 0.53004-0.52949v-1.592c0-0.31805-0.21272-0.52949-0.53004-0.52949h-2.9108c-0.21095 0-0.31731-0.10661-0.31731-0.31983v-13.207c0-6.1549-3.1749-9.6553-8.7323-9.6553-3.4922 0-6.0857 1.592-7.3035 4.0849h-0.053181v-13.792c0-0.31983-0.21095-0.53127-0.52827-0.53127h-5.6106zm41.068 10.238c-4.5505 0-7.9913 2.3347-9.367 6.5778-0.47686 1.5387-0.74099 3.3955-0.74099 6.5778 0 3.0242 0.21095 4.9858 0.74099 6.5245 1.4288 4.3497 4.7633 6.6844 9.6843 6.6844 4.1818 0 7.3567-1.7502 9.2092-4.2448 0.21272-0.26475 0.21272-0.52949-0.053181-0.74271l-1.2161-1.1123c-0.26591-0.21322-0.53004-0.15991-0.74099 0.10483-1.482 1.8568-3.7581 3.2356-7.0394 3.2356-3.4922 0-6.0325-1.6436-7.144-4.9325-0.3705-1.1141-0.53004-2.3347-0.53004-4.4563 0-0.21144 0.10636-0.37136 0.31731-0.37136h16.46c0.3705 0 0.58145-0.21144 0.58145-0.52949 0-3.5021-0.21095-5.1457-0.74099-6.7377-1.3756-4.2431-4.8147-6.5778-9.4201-6.5778zm0 2.6528c3.2813 0 5.7684 1.5903 6.7753 4.7743 0.31731 1.0075 0.47508 2.1215 0.47508 3.6603 0 0.21144-0.10459 0.31805-0.31731 0.31805h-13.813c-0.21095 0-0.31731-0.10661-0.31731-0.31805 0-1.5387 0.15954-2.6528 0.47686-3.6603 1.0051-3.1841 3.439-4.7743 6.7203-4.7743zm39.427-2.6528c-4.6037 0-8.0445 2.3863-9.4201 6.5778-0.52827 1.6969-0.84735 3.5536-0.84735 6.5778 0 3.0775 0.31909 4.9325 0.84735 6.6311 1.3756 4.1897 4.8164 6.5778 9.4201 6.5778 4.6569 0 8.0977-2.388 9.4733-6.5778 0.53004-1.6986 0.84735-3.5536 0.84735-6.6311 0-3.0242-0.31731-4.8809-0.84735-6.5778-1.3756-4.1915-4.8164-6.5778-9.4733-6.5778zm0 2.7576c3.2813 0 5.717 1.6986 6.7221 4.7228 0.47508 1.4321 0.68781 2.9691 0.68781 5.6752 0 2.7576-0.21272 4.2964-0.68781 5.7285-1.0051 3.0242-3.4408 4.721-6.7221 4.721-3.2281 0-5.662-1.6969-6.6671-4.721-0.47686-1.4321-0.68958-2.9708-0.68958-5.7285 0-2.7061 0.21272-4.2431 0.68958-5.6752 1.0051-3.0242 3.439-4.7228 6.6671-4.7228z"/>
<path d="m256.23 13.242c3.2511 0 5.7702 0.91329 7.5588 2.7363 1.7869 1.8248 2.6821 4.6606 2.6821 8.5057v26.684c0 3.845-0.89522 6.6809-2.6821 8.5039-1.7887 1.8266-4.3077 2.7381-7.5588 2.7381h-10.142v-49.168h10.142zm-22.82-11.144v71.455h22.82c3.1855 0 6.1761-0.40512 8.9734-1.2207 2.7938-0.81556 5.2312-2.102 7.3142-3.861 2.0794-1.7608 3.705-4.0583 4.8749-6.8923 1.17-2.834 1.755-6.3042 1.755-10.41v-26.684c0-4.1062-0.58499-7.5764-1.755-10.41-1.17-2.8358-2.7956-5.1332-4.8749-6.8923-2.0829-1.7591-4.5204-3.0455-7.3142-3.861-2.7973-0.81378-5.7879-1.2225-8.9734-1.2225h-22.82z"/>
<path d="m23.864 13.242c3.2511 0 5.7702 0.91329 7.5588 2.7363 1.7869 1.8248 2.6821 4.6606 2.6821 8.5057v26.684c0 3.845-0.89522 6.6809-2.6821 8.5039-1.7887 1.8266-4.3077 2.7381-7.5588 2.7381h-10.142v-49.168h10.142zm-22.82-11.144v71.455h22.82c3.1855 0 6.1761-0.40512 8.9734-1.2207 2.7938-0.81556 5.2312-2.102 7.3142-3.861 2.0794-1.7608 3.705-4.0583 4.8749-6.8923 1.17-2.834 1.755-6.3042 1.755-10.41v-26.684c0-4.1062-0.58499-7.5764-1.755-10.41-1.17-2.8358-2.7956-5.1332-4.8749-6.8923-2.0829-1.7591-4.5204-3.0455-7.3142-3.861-2.7973-0.81378-5.7879-1.2225-8.9734-1.2225h-22.82z"/>
<path d="m357.71 2.1144h-5.3748v42.434l-20.218-34.403-1.5919-2.7097-0.84203-1.4303-0.22691-0.38912-0.023045 0.014215c-1.1682-2.0327-3.2476-3.4435-6.2825-3.5163h-5.3731v64.39c0.234 4.3195 3.1536 6.7253 6.7788 7.0487h5.9687v-42.805l20.797 35.391 0.43963 0.86709 0.57258 1.1318 0.54599 1.0785 0.21095 0.41578 0.095726 0.19012 0.005318-0.0035537c1.1682 2.2424 3.3646 3.5074 5.9226 3.7349h5.9669v-64.113c-0.14004-3.9517-2.6644-7.2139-7.3727-7.3258"/>
<path d="m159.41 2.1144h-5.3748v42.434l-20.218-34.403-1.5919-2.7097-0.84204-1.4303-0.22691-0.38912-0.023045 0.014215c-1.1682-2.0327-3.2494-3.4435-6.2825-3.5163h-5.3731v64.39c0.23222 4.3195 3.1536 6.7253 6.7788 7.0487h5.9687v-42.805l20.797 35.391 0.43963 0.86709 0.57258 1.1318 0.54599 1.0785 0.21095 0.41578 0.095726 0.19012 0.005318-0.0035537c1.1682 2.2424 3.3646 3.5074 5.9226 3.7349h5.9669v-64.113c-0.14004-3.9517-2.6644-7.2139-7.3727-7.3258"/>
<path d="m297.46 2.1144h-5.3748v64.39c0.234 4.3195 3.1536 6.7253 6.7806 7.0487h5.9669v-64.102c-0.13472-3.957-2.6626-7.2246-7.3727-7.3365"/>
<path d="m95.178 1.5727c-0.67717 0-1.0778-0.021322-1.3189-0.055082v3.8912c0 0.0053305-0.0017727 0.010661-0.0017727 0.014215v45.746c0 3.8468-0.94308 6.6809-2.8275 8.5039-1.8862 1.8266-4.5186 2.7381-7.9009 2.7381s-6.0148-0.91151-7.8974-2.7381c-1.8879-1.823-2.831-4.6571-2.831-8.5039v-38.321c-0.049636-6.1176-3.8982-11.233-11.177-11.336h-1.4997v3.9108 45.746c0 4.108 0.60272 7.5781 1.8046 10.41 1.2019 2.8376 2.8611 5.1315 4.9724 6.8905 2.1148 1.7608 4.5842 3.0473 7.4134 3.8628 2.8275 0.81201 5.9013 1.2207 9.2145 1.2207 3.2494 0 6.3073-0.40867 9.1684-1.2207 2.8611-0.81556 5.3465-2.102 7.4595-3.8628 2.1131-1.7591 3.7705-4.0529 4.9742-6.8905 1.2019-2.8323 1.8046-6.3024 1.8046-10.41v-38.607c-0.20209-6.0128-4.0825-10.99-11.358-10.99"/>
<path d="m203.92 12.779c0.6949 0 1.1062-0.021322 1.3473-0.056858h11.166c1.3083 0 2.3098-0.57391 2.9994-1.7271 0.68604-1.1443 1.0299-2.4698 1.0317-3.9801v-0.024876c-0.001773-1.3077-0.32972-2.5533-0.98385-3.7331-0.65767-1.1851-1.6699-1.7733-3.0473-1.7733h-25.548c-7.3089 0.16169-11.163 5.3536-11.163 11.542h-0.001773v48.331c0.007091 0.20789 0.014182 0.41578 0.014182 0.71073 0 7.3738 5.0345 11.302 11.108 11.485h25.598c1.3738-0.0017768 2.3861-0.59346 3.0402-1.775 0.65413-1.178 0.98208-2.4236 0.98385-3.7349v-0.024876c-0.001773-1.505-0.34568-2.8323-1.0317-3.9783-0.68958-1.1514-1.6912-1.7271-2.9994-1.7271h-13.361c-5.701-0.37313-10.344 1.5227-10.571-5.3127l0.00709-14.502h14.953c1.3738 0 2.3896-0.54193 3.0473-1.6276 0.6559-1.0839 0.98385-2.1855 0.98385-3.3031 0-1.3148-0.3439-2.4964-1.0353-3.5501-0.68604-1.0501-1.6876-1.5778-2.9959-1.5778h-14.953l-0.00709-14.936c0.42013-5.8102 4.3077-4.7246 11.418-4.7246"/>
<path d="m362.79 131.81c0.53358 0 0.92535-0.22921 1.1753-0.68941 0.24818-0.4602 0.37227-0.95771 0.37227-1.4943 0-0.5366-0.12409-1.0341-0.37227-1.4943-0.24995-0.4602-0.64172-0.68941-1.1753-0.68941h-15.651v-35.97c0-0.57391-0.24818-0.99502-0.74454-1.2633-0.49636-0.2683-1.053-0.40334-1.6628-0.40334-0.61158 0-1.1664 0.13504-1.6628 0.40334-0.49636 0.2683-0.74454 0.68941-0.74454 1.2633v38.614c0 0.57391 0.22868 1.0057 0.68781 1.2935 0.45913 0.28607 0.95549 0.42999 1.4908 0.42999h18.287zm-39.154-1.7235c0 0.57391 0.24818 1.0057 0.74454 1.2935 0.49636 0.28607 1.0512 0.42999 1.6628 0.42999 0.60981 0 1.1647-0.14392 1.6628-0.42999 0.49636-0.28784 0.74454-0.71961 0.74454-1.2935v-38.614c0-0.57391-0.24818-0.99502-0.74454-1.2633-0.49813-0.2683-1.053-0.40334-1.6628-0.40334-0.61158 0-1.1664 0.13504-1.6628 0.40334-0.49636 0.2683-0.74454 0.68941-0.74454 1.2633v38.614zm-14.276-27.638c0.80304 0 1.4058-0.16347 1.8064-0.48863 0.40063-0.32516 0.60272-1.043 0.60272-2.1553 0-1.4161-0.28718-2.7292-0.85976-3.9357-0.57436-1.2065-1.3969-2.2601-2.4658-3.161-1.0689-0.89907-2.3701-1.608-3.8982-2.1251-1.5298-0.51706-3.2476-0.77647-5.1603-0.77647-1.6805 0-3.2671 0.2221-4.7562 0.66098-1.4908 0.44065-2.8009 1.1603-3.9283 2.1553-1.1274 0.9968-2.0156 2.2903-2.6644 3.8788-0.65058 1.5903-0.97499 3.5341-0.97499 5.8315v17.296c0 2.2992 0.3244 4.2431 0.97499 5.8315 0.64881 1.5903 1.5281 2.8838 2.636 3.8788 1.1079 0.9968 2.4073 1.7146 3.8982 2.1553s3.0756 0.66098 4.7579 0.66098c1.911 0 3.6411-0.25942 5.1887-0.7747 1.5476-0.51883 2.8576-1.2367 3.9265-2.1553 1.0689-0.92039 1.8915-2.0025 2.4658-3.2463 0.57258-1.2456 0.85976-2.5764 0.85976-3.9943 0-1.1105-0.20209-1.839-0.60272-2.1837-0.40063-0.3447-1.0034-0.51706-1.8064-0.51706-1.4891 0-2.2921 0.55615-2.4073 1.6667-0.076226 0.68941-0.20032 1.4268-0.37227 2.2121-0.17195 0.78536-0.50699 1.5227-1.0034 2.2121s-1.2037 1.2651-2.1202 1.7235c-0.91826 0.4602-2.1787 0.68941-3.7847 0.68941-2.5616 0-4.4991-0.66098-5.818-1.9829-1.3189-1.3202-1.9783-3.3795-1.9783-6.1762v-17.296c0-2.7949 0.65058-4.8543 1.95-6.1762 1.2976-1.322 3.1909-1.9829 5.6744-1.9829 1.6061 0 2.8948 0.23987 3.8698 0.71961 0.97499 0.47797 1.7195 1.0537 2.2354 1.7235 0.51763 0.66986 0.86153 1.3877 1.0317 2.1535 0.17195 0.76759 0.27832 1.4374 0.31554 2.0114 0.076227 1.1123 0.87926 1.6667 2.4073 1.6667zm-36.516 28.932c0.49636-0.28784 0.74454-0.71961 0.74454-1.2935v-38.614c0-0.57391-0.24818-0.99502-0.74454-1.2633-0.49636-0.2683-1.0512-0.40334-1.6628-0.40334s-1.1664 0.13504-1.6628 0.40334c-0.49636 0.2683-0.74454 0.68941-0.74454 1.2633v29.362l-14.276-27.983c-0.53358-0.99502-1.0601-1.7519-1.5759-2.269-0.51586-0.51706-1.2125-0.77647-2.0918-0.77647-0.65058 0-1.2143 0.12615-1.6912 0.37313-0.47863 0.25053-0.71794 0.6823-0.71794 1.2935v38.614c0 0.57391 0.24995 1.0057 0.74631 1.2935 0.49636 0.28607 1.0512 0.42999 1.6628 0.42999 0.60981 0 1.1664-0.14392 1.6628-0.42999 0.49636-0.28784 0.74454-0.71961 0.74454-1.2935v-29.362l14.905 28.902c0.3439 0.65209 0.77467 1.178 1.2905 1.5796 0.51586 0.40334 1.0973 0.60412 1.7479 0.60412 0.61158 0 1.1664-0.14392 1.6628-0.42999zm-42.937-11.752c0 2.7967-0.68958 4.8561-2.0652 6.1762-1.3756 1.322-3.2671 1.9829-5.6744 1.9829-2.4091 0-4.2917-0.66098-5.6478-1.9829-1.3561-1.3202-2.0333-3.3795-2.0333-6.1762v-28.156c0-0.57391-0.24995-0.99502-0.74631-1.2633-0.49813-0.2683-1.0512-0.40334-1.6628-0.40334-0.61158 0-1.1664 0.13504-1.6628 0.40334-0.49636 0.2683-0.74454 0.68941-0.74454 1.2633v28.156c0 2.2992 0.3244 4.2431 0.97499 5.8315 0.64881 1.5903 1.5281 2.8838 2.636 3.8788 1.1079 0.9968 2.4268 1.7146 3.9567 2.1553 1.5263 0.44065 3.1714 0.66098 4.9299 0.66098 1.7568 0 3.4-0.22033 4.9299-0.66098 1.5281-0.44065 2.8558-1.1585 3.985-2.1553 1.1257-0.99502 2.0138-2.2885 2.6644-3.8788 0.65058-1.5885 0.97499-3.5323 0.97499-5.8315v-28.156c0-0.57391-0.25704-0.99502-0.77467-1.2633-0.51586-0.2683-1.0601-0.40334-1.6327-0.40334-0.65058 0-1.2143 0.13504-1.6912 0.40334-0.47863 0.2683-0.71617 0.68941-0.71617 1.2633v28.156zm-38.352 0c0 2.7967-0.66831 4.8561-2.0067 6.1762-1.3384 1.322-3.1909 1.9829-5.561 1.9829-2.3683 0-4.2119-0.66098-5.5308-1.9829-1.3189-1.3202-1.9783-3.3795-1.9783-6.1762v-17.296c0-2.7949 0.65945-4.8543 1.9783-6.1762s3.1625-1.9829 5.5308-1.9829c2.3701 0 4.2226 0.66098 5.561 1.9829 1.3384 1.322 2.0067 3.3813 2.0067 6.1762v17.296zm-2.7229 11.866c1.5103-0.44065 2.8292-1.1585 3.9567-2.1553 1.1257-0.99502 2.0049-2.2885 2.636-3.8788 0.63108-1.5885 0.94662-3.5323 0.94662-5.8315v-17.296c0-2.2974-0.31554-4.2413-0.94662-5.8315-0.63108-1.5885-1.5103-2.882-2.636-3.8788-1.1274-0.99502-2.4463-1.7146-3.9567-2.1553-1.5103-0.43888-3.1235-0.66098-4.8448-0.66098-1.7195 0-3.3327 0.2221-4.843 0.66098-1.5103 0.44065-2.8186 1.1603-3.9265 2.1553-1.1097 0.9968-1.9783 2.2903-2.6094 3.8788-0.63108 1.5903-0.94485 3.5341-0.94485 5.8315v17.296c0 2.2992 0.31377 4.2431 0.94485 5.8315 0.63108 1.5903 1.4997 2.8838 2.6094 3.8788 1.1079 0.9968 2.4162 1.7146 3.9265 2.1553s3.1235 0.66098 4.843 0.66098c1.7213 0 3.3345-0.22033 4.8448-0.66098zm-31.042-29.046c0.80304 0 1.404-0.16347 1.8064-0.48863 0.40063-0.32516 0.60095-1.043 0.60095-2.1553 0-1.4161-0.28541-2.7292-0.85976-3.9357-0.57258-1.2065-1.3951-2.2601-2.4641-3.161-1.0707-0.89907-2.3719-1.608-3.8999-2.1251-1.5281-0.51706-3.2476-0.77647-5.1586-0.77647-1.6823 0-3.2671 0.2221-4.7579 0.66098-1.4908 0.44065-2.7991 1.1603-3.9265 2.1553-1.1274 0.9968-2.0173 2.2903-2.6661 3.8788-0.65058 1.5903-0.97499 3.5341-0.97499 5.8315v17.296c0 2.2992 0.3244 4.2431 0.97499 5.8315 0.64881 1.5903 1.5281 2.8838 2.6378 3.8788 1.1079 0.9968 2.4073 1.7146 3.8982 2.1553 1.4891 0.44065 3.0756 0.66098 4.7579 0.66098 1.911 0 3.6394-0.25942 5.1869-0.7747 1.5493-0.51883 2.8576-1.2367 3.9283-2.1553 1.0689-0.92039 1.8915-2.0025 2.4641-3.2463 0.57436-1.2456 0.85976-2.5764 0.85976-3.9943 0-1.1105-0.20032-1.839-0.60095-2.1837-0.4024-0.3447-1.0034-0.51706-1.8064-0.51706-1.4908 0-2.2939 0.55615-2.4073 1.6667-0.077999 0.68941-0.20032 1.4268-0.37227 2.2121-0.17195 0.78536-0.50877 1.5227-1.0034 2.2121-0.49813 0.68941-1.2054 1.2651-2.1219 1.7235-0.91649 0.4602-2.1787 0.68941-3.783 0.68941-2.5616 0-4.5009-0.66098-5.8198-1.9829-1.3171-1.3202-1.9766-3.3795-1.9766-6.1762v-17.296c0-2.7949 0.64881-4.8543 1.9482-6.1762s3.1909-1.9829 5.6762-1.9829c1.6043 0 2.8948 0.23987 3.8698 0.71961 0.97322 0.47797 1.7195 1.0537 2.2354 1.7235s0.85976 1.3877 1.0317 2.1535c0.17195 0.76759 0.27654 1.4374 0.31554 2.0114 0.076226 1.1123 0.87926 1.6667 2.4073 1.6667z"/>
<path d="m99.531 130.08c0 0.57569 0.24818 1.0057 0.74454 1.2935 0.49636 0.28607 1.0512 0.42999 1.6628 0.42999 0.61158 0 1.1647-0.14392 1.6628-0.42999 0.49636-0.28785 0.74454-0.71784 0.74454-1.2935v-14.536c0-0.2683 0.039-0.4602 0.11523-0.57569l11.866-22.18c0.15245-0.3447 0.22868-0.66986 0.22868-0.97548 0-0.613-0.31377-1.1016-0.94485-1.4659-0.63108-0.36425-1.271-0.54548-1.9198-0.54548-0.68958 0-1.2622 0.42111-1.7213 1.2633l-10.032 19.709-10.088-19.709c-0.23045-0.42111-0.46977-0.7356-0.71795-0.94705-0.24818-0.20967-0.58322-0.31627-1.0034-0.31627-0.61158 0-1.2409 0.18124-1.8915 0.54548-0.65058 0.36425-0.97499 0.85288-0.97499 1.4659 0 0.30561 0.076226 0.63077 0.22868 0.97548l11.868 22.18c0.11523 0.1919 0.17195 0.38379 0.17195 0.57569v14.536zm-44.828-40.279c-0.57436 0-1.0034 0.22921-1.2923 0.68941-0.28541 0.4602-0.42899 0.95771-0.42899 1.4943 0 0.613 0.15245 1.1478 0.45913 1.608 0.30491 0.4602 0.72504 0.68941 1.2622 0.68941h9.2854v35.798c0 0.57569 0.24818 1.0057 0.74631 1.2935 0.49636 0.28607 1.0494 0.42999 1.6628 0.42999 0.60981 0 1.1647-0.14392 1.661-0.42999 0.49636-0.28785 0.74631-0.71784 0.74631-1.2935v-35.798h9.2287c0.57258 0 1.0034-0.23809 1.2905-0.71784 0.28541-0.47797 0.42899-1.0057 0.42899-1.5796 0-0.5366-0.14359-1.0341-0.42899-1.4943-0.28718-0.4602-0.71794-0.68941-1.2905-0.68941h-23.331zm-17.085 40.279c0 0.57569 0.24995 1.0057 0.74631 1.2935 0.49636 0.28607 1.0512 0.42999 1.6628 0.42999 0.60981 0 1.1647-0.14392 1.6628-0.42999 0.49458-0.28785 0.74454-0.71784 0.74454-1.2935v-38.612c0-0.57569-0.24995-0.9968-0.74454-1.2651-0.49813-0.26652-1.053-0.40156-1.6628-0.40156-0.61158 0-1.1664 0.13504-1.6628 0.40156-0.49636 0.2683-0.74631 0.68941-0.74631 1.2651v38.612zm-14.274-27.638c0.80303 0 1.4058-0.16169 1.8064-0.48863 0.40063-0.32338 0.60095-1.043 0.60095-2.1535 0-1.4179-0.28541-2.7292-0.85799-3.9374-0.57258-1.2047-1.3969-2.2583-2.4658-3.1592-1.0707-0.90085-2.3701-1.6098-3.8982-2.1251-1.5298-0.51883-3.2476-0.77647-5.1586-0.77647-1.6823 0-3.2689 0.22033-4.7579 0.66098-1.4908 0.44065-2.8009 1.1585-3.9283 2.1553-1.1274 0.99502-2.0156 2.2885-2.6644 3.877-0.65058 1.5903-0.97499 3.5341-0.97499 5.8333v17.296c0 2.2974 0.3244 4.2431 0.97499 5.8315 0.64881 1.5903 1.5281 2.882 2.636 3.8788s2.4073 1.7146 3.8982 2.1535c1.4908 0.44065 3.0756 0.66098 4.7597 0.66098 1.9092 0 3.6394-0.25764 5.1869-0.77469 1.5476-0.51706 2.8558-1.2367 3.9265-2.1553 1.0689-0.91862 1.8932-2.0007 2.4658-3.2463 0.57258-1.2438 0.85799-2.5764 0.85799-3.9943 0-1.1105-0.20032-1.839-0.60095-2.1819-0.40063-0.3447-1.0034-0.51883-1.8064-0.51883-1.4891 0-2.2921 0.55614-2.4073 1.6667-0.076226 0.68941-0.20032 1.4286-0.37227 2.2121-0.17195 0.78713-0.50699 1.5227-1.0034 2.2121-0.49636 0.68941-1.2037 1.2651-2.1219 1.7253-0.91649 0.45842-2.1769 0.68941-3.783 0.68941-2.5616 0-4.4991-0.66098-5.818-1.9829-1.3189-1.322-1.9783-3.3813-1.9783-6.1762v-17.296c0-2.7967 0.65058-4.8561 1.95-6.178 1.2976-1.3202 3.1909-1.9812 5.6744-1.9812 1.6061 0 2.8948 0.23987 3.8698 0.71784 0.97499 0.47974 1.7195 1.0537 2.2372 1.7235 0.51408 0.66986 0.85799 1.3895 1.0299 2.1553 0.17195 0.76581 0.27831 1.4357 0.31554 2.0096 0.076226 1.1123 0.87926 1.6667 2.4073 1.6667z"/>
</g>
<polygon points="58.336 74.352 71.301 74.352 71.301 61.355 58.336 61.355" fill="#008590"/>
<polygon points="38.89 61.355 38.89 74.352 45.369 80.846 51.856 74.352 51.856 61.355 45.369 54.86" fill="#008590"/>
<polygon points="71.3 80.847 58.335 80.847 51.856 87.343 58.335 93.841 71.3 93.841 77.78 87.343" fill="#008590"/>
<polygon points="71.3 41.864 58.335 41.864 51.856 48.36 58.335 54.86 71.3 54.86 77.78 48.36" fill="#008590"/>
<polygon points="97.227 74.352 110.19 74.352 110.19 61.355 97.227 61.355" fill="#008590"/>
<polygon points="116.67 61.355 116.67 74.352 123.16 80.846 129.64 74.352 129.64 61.355 123.16 54.86" fill="#008590"/>
<polygon points="77.781 61.355 77.781 74.352 84.263 80.846 90.748 74.352 90.748 61.355 84.263 54.86" fill="#008590"/>
<polygon points="110.19 80.847 97.227 80.847 90.748 87.343 97.227 93.841 110.19 93.841 116.67 87.343" fill="#008590"/>
<polygon points="110.19 41.864 97.227 41.864 90.748 48.36 97.227 54.86 110.19 54.86 116.67 48.36" fill="#008590"/>
<polygon points="19.444 74.352 32.408 74.352 32.408 61.355 19.444 61.355" fill="#008590"/>
<polygon points="1.1369e-13 61.355 1.1369e-13 74.352 6.4775 80.846 12.964 74.352 12.964 61.355 6.4775 54.86" fill="#008590"/>
<polygon points="32.408 80.847 19.445 80.847 12.964 87.343 19.445 93.841 32.408 93.841 38.889 87.343" fill="#008590"/>
<polygon points="32.408 41.864 19.445 41.864 12.964 48.36 19.445 54.86 32.408 54.86 38.889 48.36" fill="#008590"/>
<polygon points="58.336 35.369 71.301 35.369 71.301 22.373 58.336 22.373" fill="#008590"/>
<polygon points="77.781 22.374 77.781 35.37 84.263 41.864 90.748 35.37 90.748 22.374 84.263 15.878" fill="#008590"/>
<polygon points="38.89 22.374 38.89 35.37 45.369 41.864 51.856 35.37 51.856 22.374 45.369 15.878" fill="#008590"/>
<polygon points="71.3 2.8837 58.335 2.8837 51.856 9.3798 58.335 15.878 71.3 15.878 77.78 9.3798" fill="#008590"/>
<polygon points="58.336 113.33 71.301 113.33 71.301 100.34 58.336 100.34" fill="#008590"/>
<polygon points="38.89 100.34 38.89 113.33 45.369 119.83 51.856 113.33 51.856 100.34 45.369 93.841" fill="#008590"/>
<polygon points="71.3 119.83 58.335 119.83 51.856 126.33 58.335 132.82 71.3 132.82 77.78 126.33" fill="#008590"/>
<polygon points="77.781 100.34 77.781 113.33 84.263 119.83 90.748 113.33 90.748 100.34 84.263 93.841" fill="#008590"/>
<polygon points="97.227 35.369 103.71 35.369 97.227 28.871" fill="#008590"/>
<polygon points="32.408 35.369 25.927 35.369 32.408 28.871" fill="#008590"/>
<polygon points="32.408 106.83 25.927 100.34 32.408 100.34" fill="#008590"/>
<polygon points="97.227 106.83 97.227 100.34 103.71 100.34" fill="#008590"/>
<path d="m550.52 132.82c-1.4412 0-2.6094-1.1176-2.6094-2.5v-125.04c0-1.3806 1.1682-2.5 2.6094-2.5s2.6094 1.1194 2.6094 2.5v125.04c0 1.3824-1.1682 2.5-2.6094 2.5" fill="#008590"/>
</g>
</svg>
