<svg viewBox="0 0 107.47 14.07" xmlns="http://www.w3.org/2000/svg"><path d="M101 9.8h-1.3V5a1.63 1.63 0 0 0-.23-1.1.9.9 0 0 0-.73-.28 2.87 2.87 0 0 0-1.74.89V9.8h-.66c-.42 0-.64-.32-.64-.8V4.48a3.92 3.92 0 0 0-.27-1.7l1.24-.34a2.29 2.29 0 0 1 .24 1.1 7 7 0 0 1 .93-.7 2.65 2.65 0 0 1 1.32-.36 1.79 1.79 0 0 1 1.69 1 2.28 2.28 0 0 1 .17.89zm6.47-.94l-.47.94h-4.88v-.94l3.75-5.25h-3.46v-.95h4.89v1l-3.58 5.22zm-15.55-6.2l-.36.92h-1.41v4.31c0 .88.22 1.15.93 1.15a1.58 1.58 0 0 0 .67-.14l.16.8a3 3 0 0 1-1.3.3 2 2 0 0 1-1.21-.36c-.3-.27-.53-.41-.53-1.46v-4.6H88l.29-.92h.56A13.85 13.85 0 0 1 89 .83l1.31-.31a20.82 20.82 0 0 0-.13 2.14zm-4.45 0l-2.61 7.19h-1.23l-2.55-7.17 1.35-.21 1.42 4.32c.15.48.31 1 .42 1.54.12-.43.26-1 .46-1.57l1.35-4.1zm-8 3.69c0-2.21-.65-2.88-1.67-2.88s-1.61.81-1.61 2.61c0 2.18.55 2.9 1.67 2.9s1.61-.77 1.61-2.63m1.46-.06c0 2.27-1.21 3.71-3.1 3.71s-3.1-1.46-3.1-3.78 1.19-3.76 3.07-3.76c2.11 0 3.13 1.68 3.13 3.83m-8.88-1.47c0-.91-.41-1.34-1.31-1.34s-1.29.46-1.29 1.37a1.18 1.18 0 0 0 1.31 1.33c.85 0 1.29-.47 1.29-1.36m2.74-1.58a1.77 1.77 0 0 1-1.8.31 2 2 0 0 1 .52 1.31 2.25 2.25 0 0 1-2.57 2.21c-.44.15-1.12.47-1.12.79s.17.35.51.35h1.1c1.82 0 2.58.86 2.58 2 0 1.54-1.27 2.31-3 2.31-2 0-3.14-.7-3.14-1.88a2.17 2.17 0 0 1 .13-.76l1.28-.07a1.49 1.49 0 0 0-.12.54c0 .74.61 1.14 1.72 1.14s1.75-.47 1.75-1.22-.55-1.09-2-1.09c-.5 0-1.07 0-1.34-.07-.63-.07-1-.43-1-.95 0-.67.58-1 1.4-1.26A2.1 2.1 0 0 1 68 4.85a2.44 2.44 0 0 1 2.74-2.39 3.37 3.37 0 0 1 1.11.15 3.82 3.82 0 0 0 1.15.23 1.94 1.94 0 0 0 1.17-.41zM63 8V4.25a1.83 1.83 0 0 0-1.51-.67 1.39 1.39 0 0 0-1.24.73 3.81 3.81 0 0 0-.37 2c0 1.38.17 1.76.55 2.16a1.34 1.34 0 0 0 1.06.37A1.71 1.71 0 0 0 63 8m1.47 1.8h-1.25a3.44 3.44 0 0 1-.13-.67 2.4 2.4 0 0 1-1.84.78c-1.82 0-2.89-1.37-2.89-3.62a3.78 3.78 0 0 1 1.5-3.35 2.48 2.48 0 0 1 1.39-.41 2.12 2.12 0 0 1 1.75.82V.1l1.32.21V7.4a9 9 0 0 0 .19 2.4M49.24 6.29h-.43a2.48 2.48 0 0 0-1.81.48 1.36 1.36 0 0 0-.38 1c0 .79.4 1.24 1.13 1.24a1.78 1.78 0 0 0 1.5-.94zm1.85 2.92l-.67.88a1.61 1.61 0 0 1-1-1 2.5 2.5 0 0 1-2 .94 2 2 0 0 1-2.3-2.1c0-1.65 1.32-2.53 3.63-2.53h.5v-.48c0-.84-.12-1.41-1.11-1.41a4 4 0 0 0-2.2.81l-.6-.94a5.62 5.62 0 0 1 3-.94 2 2 0 0 1 2.06 1.14 3.15 3.15 0 0 1 .15 1.26c0 .51-.06 1.61-.06 2.65s0 1.38.58 1.72m-6.5.57a2 2 0 0 1-.81.16 1.24 1.24 0 0 1-1.12-.54 1.83 1.83 0 0 1-.27-1.24V2.34a9.7 9.7 0 0 0-.13-2.06L43.6 0a8.73 8.73 0 0 1 .13 2v5.81c0 .76.05.93.19 1.06a.47.47 0 0 0 .44.1zm-5-3.49h-.43a2.48 2.48 0 0 0-1.86.51 1.39 1.39 0 0 0-.37 1c0 .79.39 1.24 1.12 1.24a1.78 1.78 0 0 0 1.5-.94zm1.85 2.92l-.67.88a1.61 1.61 0 0 1-1-1 2.5 2.5 0 0 1-2 .94 2 2 0 0 1-2.3-2.1c0-1.65 1.32-2.53 3.63-2.53h.5v-.48c0-.84-.12-1.41-1.11-1.41a4 4 0 0 0-2.2.81l-.6-.94a5.62 5.62 0 0 1 3-.94 2 2 0 0 1 2.06 1.14 3.15 3.15 0 0 1 .15 1.26c0 .51-.06 1.61-.06 2.65s0 1.38.58 1.72m-8.04-3.68a2.59 2.59 0 0 0-.45-1.61 1.28 1.28 0 0 0-1-.5c-1 0-1.5.82-1.5 2.11zm1.36 1h-4.34v.17a2.63 2.63 0 0 0 .3 1.43 1.85 1.85 0 0 0 1.64.84 2.59 2.59 0 0 0 1.75-.68l.5.78a3.67 3.67 0 0 1-2.47.93c-2 0-3.19-1.44-3.19-3.77a3.93 3.93 0 0 1 .85-2.77 2.67 2.67 0 0 1 2.16-1 2.53 2.53 0 0 1 1.93.77c.63.64.86 1.44.87 3.08zm-6 2.36l-.46.94h-4.92v-.97l3.75-5.25h-3.47v-.95h4.89v1l-3.57 5.2zm-6.35-6.2l-2 7.19h-1.31L18 6c-.13-.5-.45-1.68-.45-1.68s-.28 1.21-.38 1.6l-1.07 4h-1.28l-2-7.14 1.38-.28.91 4c.16.72.37 1.76.37 1.76s.16-1 .33-1.63l1.08-4h1.36l1 3.86c.2.77.4 1.66.4 1.74h.06c0-.08.23-1.23.33-1.7L21 2.66zM11.1 5.53a2.66 2.66 0 0 0-.44-1.61 1.3 1.3 0 0 0-1-.5c-1 0-1.49.82-1.49 2.11zm1.37 1H8.12v.17a2.72 2.72 0 0 0 .3 1.43 1.87 1.87 0 0 0 1.64.84 2.55 2.55 0 0 0 1.75-.68l.5.78a3.66 3.66 0 0 1-2.46.93c-2 0-3.2-1.44-3.2-3.77a3.94 3.94 0 0 1 .86-2.77 2.66 2.66 0 0 1 2.15-1 2.55 2.55 0 0 1 1.94.77c.63.64.86 1.44.87 3.08zm80.71 2.15a.15.15 0 0 1 .14-.15h1a.15.15 0 0 1 .14.15v1.11h-1.14a.14.14 0 0 1-.14-.14zm-27.49 0a.15.15 0 0 1 .15-.15h1a.15.15 0 0 1 .15.15v1.11h-1.15a.15.15 0 0 1-.15-.14zM57.24 9.8h-1.3V5a1.63 1.63 0 0 0-.23-1.1.89.89 0 0 0-.71-.3 2.87 2.87 0 0 0-1.77.91V9.8h-.66c-.42 0-.64-.32-.64-.8V4.48a3.92 3.92 0 0 0-.27-1.7l1.24-.34a2.29 2.29 0 0 1 .24 1.1 7 7 0 0 1 .93-.7 2.66 2.66 0 0 1 1.33-.36 1.79 1.79 0 0 1 1.68 1 2.28 2.28 0 0 1 .17.89zm-51.65 0h-1.3V5a1.63 1.63 0 0 0-.23-1.1.9.9 0 0 0-.73-.28 2.87 2.87 0 0 0-1.76.91V9.8H.91C.49 9.8.27 9.48.27 9V4.48A3.92 3.92 0 0 0 0 2.78l1.24-.34a2.29 2.29 0 0 1 .24 1.1 7 7 0 0 1 .93-.7 2.65 2.65 0 0 1 1.32-.36 1.77 1.77 0 0 1 1.68 1 2.11 2.11 0 0 1 .18.89zM.27 13.4a302 302 0 0 1 31.84-1.92A307.41 307.41 0 0 1 64.4 13.4v.67s-16-1.81-32.28-1.81c-16 0-31.85 1.81-31.85 1.81z" fill="#fff"/></svg>